<svg class="animated" id="freepik_stories-personal-settings" xmlns="http://www.w3.org/2000/svg" viewBox="0 0 500 500" version="1.1" xmlns:xlink="http://www.w3.org/1999/xlink" xmlns:svgjs="http://svgjs.com/svgjs"><style>svg#freepik_stories-personal-settings:not(.animated) .animable {opacity: 0;}svg#freepik_stories-personal-settings.animated #freepik--background-complete--inject-9 {animation: 1s 1 forwards cubic-bezier(.36,-0.01,.5,1.38) slideRight;animation-delay: 0s;}svg#freepik_stories-personal-settings.animated #freepik--Shadow--inject-9 {animation: 1s 1 forwards cubic-bezier(.36,-0.01,.5,1.38) slideRight;animation-delay: 0s;}svg#freepik_stories-personal-settings.animated #freepik--Settings--inject-9 {animation: 1s 1 forwards cubic-bezier(.36,-0.01,.5,1.38) fadeIn;animation-delay: 0s;}svg#freepik_stories-personal-settings.animated #freepik--Character--inject-9 {animation: 1s 1 forwards cubic-bezier(.36,-0.01,.5,1.38) slideRight,1.5s Infinite  linear floating;animation-delay: 0s,1s;}            @keyframes slideRight {                0% {                    opacity: 0;                    transform: translateX(30px);                }                100% {                    opacity: 1;                    transform: translateX(0);                }            }                    @keyframes fadeIn {                0% {                    opacity: 0;                }                100% {                    opacity: 1;                }            }                    @keyframes floating {                0% {                    opacity: 1;                    transform: translateY(0px);                }                50% {                    transform: translateY(-10px);                }                100% {                    opacity: 1;                    transform: translateY(0px);                }            }        </style><g id="freepik--background-complete--inject-9" class="animable" style="transform-origin: 250px 228.23px;"><rect x="416.78" y="398.49" width="33.12" height="0.25" style="fill: rgb(235, 235, 235); transform-origin: 433.34px 398.615px;" id="ell85eeydh2hs" class="animable"></rect><rect x="322.53" y="401.21" width="8.69" height="0.25" style="fill: rgb(235, 235, 235); transform-origin: 326.875px 401.335px;" id="elc0juh56xalh" class="animable"></rect><rect x="396.59" y="389.21" width="19.19" height="0.25" style="fill: rgb(235, 235, 235); transform-origin: 406.185px 389.335px;" id="elq5h6a25ps89" class="animable"></rect><rect x="52.46" y="390.89" width="43.19" height="0.25" style="fill: rgb(235, 235, 235); transform-origin: 74.055px 391.015px;" id="elcjyqzqajxf7" class="animable"></rect><rect x="104.56" y="390.89" width="6.33" height="0.25" style="fill: rgb(235, 235, 235); transform-origin: 107.725px 391.015px;" id="elhjuw4ktsad8" class="animable"></rect><rect x="131.47" y="395.11" width="93.68" height="0.25" style="fill: rgb(235, 235, 235); transform-origin: 178.31px 395.235px;" id="el5h7mo88dfb7" class="animable"></rect><path d="M237,337.8H43.92a5.71,5.71,0,0,1-5.71-5.71V60.66A5.71,5.71,0,0,1,43.92,55H237a5.71,5.71,0,0,1,5.71,5.71V332.09A5.71,5.71,0,0,1,237,337.8ZM43.92,55.2a5.47,5.47,0,0,0-5.46,5.46V332.09a5.47,5.47,0,0,0,5.46,5.46H237a5.47,5.47,0,0,0,5.46-5.46V60.66A5.47,5.47,0,0,0,237,55.2Z" style="fill: rgb(235, 235, 235); transform-origin: 140.46px 196.4px;" id="elqbay9zhclba" class="animable"></path><path d="M453.31,337.8H260.21a5.72,5.72,0,0,1-5.71-5.71V60.66A5.72,5.72,0,0,1,260.21,55h193.1A5.71,5.71,0,0,1,459,60.66V332.09A5.71,5.71,0,0,1,453.31,337.8ZM260.21,55.2a5.47,5.47,0,0,0-5.46,5.46V332.09a5.47,5.47,0,0,0,5.46,5.46h193.1a5.47,5.47,0,0,0,5.46-5.46V60.66a5.47,5.47,0,0,0-5.46-5.46Z" style="fill: rgb(235, 235, 235); transform-origin: 356.75px 196.4px;" id="elo7fb0xglfe" class="animable"></path><rect y="382.4" width="500" height="0.25" style="fill: rgb(235, 235, 235); transform-origin: 250px 382.525px;" id="ellv3rn53roo" class="animable"></rect><path d="M412.85,292.76c-11.35,8.75-14.63,27.91-15.2,41.41,0,1.23-2,1.24-1.92,0,.6-14.3,3.86-33.59,16.15-43.07,1-.75,1.93.91,1,1.66Z" style="fill: rgb(245, 245, 245); transform-origin: 404.496px 313.003px;" id="elzs65ih2uhk" class="animable"></path><path d="M386.5,283c2.9-.33,5.33,2.63,6.59,4.8,6.53,11.29,4,28.32,2.77,40.44-.13,1.21-2.05,1.23-1.92,0,1.2-11.79,3.39-27.15-1.94-38.35-.91-1.92-2.86-5.27-5.5-5-1.22.14-1.21-1.78,0-1.92Z" style="fill: rgb(230, 230, 230); transform-origin: 391.487px 306.062px;" id="ellrgy7yz297" class="animable"></path><path d="M379.47,298.47c12.14-3,13.66,23.92,14,29.73.08,1.23-1.84,1.23-1.92,0-.48-7.86-.87-19.11-6.55-25.41-1.15-1.28-3.14-2.93-5-2.47a1,1,0,0,1-.51-1.85Z" style="fill: rgb(230, 230, 230); transform-origin: 386.244px 313.68px;" id="eloo40c4l5ybl" class="animable"></path><path d="M415.45,311.53c-10-7.43-13.3,12.1-13.86,17.73-.12,1.22-2,1.23-1.92,0,.63-6.39,1.6-18,9-20.64a8.61,8.61,0,0,1,7.77,1.25c1,.73,0,2.4-1,1.66Z" style="fill: rgb(230, 230, 230); transform-origin: 408.261px 319.187px;" id="el0sk6l2ptkczi" class="animable"></path><path d="M375.53,315.06a7.11,7.11,0,0,1,6-2.18c6.12,1,7.82,10.27,8.75,15.06.23,1.21-1.62,1.72-1.85.51-.8-4.14-4.66-19-11.52-12a1,1,0,0,1-1.35-1.35Z" style="fill: rgb(245, 245, 245); transform-origin: 382.873px 320.987px;" id="el3q5q8pk861t" class="animable"></path><path d="M411.68,378h-29a23.5,23.5,0,0,1-8.33-18c0-8.23,4.63-32.93,4.63-32.93h36.45S420,351.81,420,360A23.5,23.5,0,0,1,411.68,378Z" style="fill: rgb(235, 235, 235); transform-origin: 397.175px 352.535px;" id="el0bk04402c4v" class="animable"></path><path d="M416.3,321c-8.76,0-17.33-3.55-19.14-7.92s3.82-7.93,12.57-7.93a33.55,33.55,0,0,1,8.37,1.07,24.12,24.12,0,0,1,7.49-1.07c8.75,0,17.32,3.55,19.13,7.93S440.91,321,432.15,321Z" style="fill: rgb(245, 245, 245); transform-origin: 420.94px 313.074px;" id="elglj9py610bp" class="animable"></path><path d="M359.17,304c-7.16,0-10.07-2.9-6.48-6.48s12.28-6.48,19.45-6.48a15.33,15.33,0,0,1,5.61.87,34.26,34.26,0,0,1,7.35-.87c7.17,0,10.07,2.9,6.49,6.48S379.3,304,372.14,304Z" style="fill: rgb(240, 240, 240); transform-origin: 372.138px 297.516px;" id="elb3e1ugdtc5c" class="animable"></path><path d="M425,297.55c-9,0-20-3.65-24.48-8.16s-.85-8.16,8.16-8.16a42.71,42.71,0,0,1,9.26,1.11,19,19,0,0,1,7.06-1.11c9,0,20,3.66,24.47,8.16s.85,8.16-8.16,8.16Z" style="fill: rgb(235, 235, 235); transform-origin: 424.993px 289.385px;" id="el2ved6c8blx9" class="animable"></path><path d="M374.94,287c-4.5,0-7.4-1.83-6.47-4.08s5.35-4.08,9.85-4.08a12.34,12.34,0,0,1,3.85.55,17.31,17.31,0,0,1,4.31-.55c4.5,0,7.4,1.82,6.47,4.08S387.61,287,383.1,287Z" style="fill: rgb(240, 240, 240); transform-origin: 380.71px 282.919px;" id="elkqk7fe601x" class="animable"></path><path d="M369.75,319.65c-4.51,0-8.92-1.83-9.85-4.08s2-4.08,6.47-4.08a17.64,17.64,0,0,1,4.3.55,12.76,12.76,0,0,1,3.86-.55c4.5,0,8.91,1.83,9.84,4.08s-2,4.08-6.47,4.08Z" style="fill: rgb(235, 235, 235); transform-origin: 372.135px 315.57px;" id="elkdhbroud3s" class="animable"></path><path d="M378.11,331.68c.49-2.77.83-4.57.83-4.57h36.45s.33,1.8.82,4.57Z" style="fill: rgb(245, 245, 245); transform-origin: 397.16px 329.395px;" id="el4b171eozs1m" class="animable"></path><path d="M376.52,293.52s-10,3.33-13.16,8.83C363.36,302.35,363.86,294.35,376.52,293.52Z" style="fill: rgb(250, 250, 250); transform-origin: 369.94px 297.935px;" id="elu8uwhgobfd9" class="animable"></path><path d="M381.23,280.44a14.89,14.89,0,0,0-4.19,3.61A5.1,5.1,0,0,1,381.23,280.44Z" style="fill: rgb(250, 250, 250); transform-origin: 379.135px 282.245px;" id="eljq8v1hs12d" class="animable"></path><path d="M420,284.05s10.84,4,17.51,11.47C437.52,295.52,432.35,285.09,420,284.05Z" style="fill: rgb(250, 250, 250); transform-origin: 428.755px 289.785px;" id="el3u83wbjtosz" class="animable"></path><path d="M420,308.18A27.22,27.22,0,0,1,431.35,317S429.35,309.51,420,308.18Z" style="fill: rgb(230, 230, 230); transform-origin: 425.675px 312.59px;" id="elcbpxy6m3o4" class="animable"></path><path d="M370.85,313.68a5.31,5.31,0,0,1,2.83,4.34A9.59,9.59,0,0,1,370.85,313.68Z" style="fill: rgb(250, 250, 250); transform-origin: 372.265px 315.85px;" id="el375pefp7trn" class="animable"></path><g id="elrz569yoxcj"><rect x="372.09" y="103.64" width="4.62" height="132.3" style="fill: rgb(245, 245, 245); transform-origin: 374.4px 169.79px; transform: rotate(90deg);" class="animable"></rect></g><path d="M343.51,172.1H321.38v10.37h11.07a4.74,4.74,0,0,1,4.75-4.75h6.31Z" style="fill: rgb(224, 224, 224); transform-origin: 332.445px 177.285px;" id="elcznnp3om54j" class="animable"></path><path d="M333.51,172.1H317.38v10.37h5.07a4.74,4.74,0,0,1,4.75-4.75h6.31Z" style="fill: rgb(245, 245, 245); transform-origin: 325.445px 177.285px;" id="el6ns48ivv32i" class="animable"></path><path d="M405.29,172.1h22.14v10.37H416.36a4.75,4.75,0,0,0-4.75-4.75h-6.32Z" style="fill: rgb(235, 235, 235); transform-origin: 416.36px 177.285px;" id="elj89jasgt159" class="animable"></path><path d="M415.29,172.1h16.14v10.37h-5.07a4.75,4.75,0,0,0-4.75-4.75h-6.32Z" style="fill: rgb(245, 245, 245); transform-origin: 423.36px 177.285px;" id="elvkxn58bpop" class="animable"></path><path d="M390.23,167.92h11.52a9.31,9.31,0,0,0,3.31-7.13c0-3.26-1.84-22.67-1.84-22.67H388.76s-1.84,19.41-1.84,22.67A9.31,9.31,0,0,0,390.23,167.92Z" style="fill: rgb(235, 235, 235); transform-origin: 395.99px 153.02px;" id="elywos1s7zetm" class="animable"></path><path d="M397.56,155.12c-.05.92-.08,1.66-.08,2.16a13.91,13.91,0,0,0,4.94,10.64h17.2a13.91,13.91,0,0,0,4.94-10.64c0-.5,0-1.24-.08-2.16Z" style="fill: rgb(245, 245, 245); transform-origin: 411.02px 161.52px;" id="elsp03c2krldg" class="animable"></path><path d="M390.21,155.25A2.27,2.27,0,0,0,388,153H374.48a2.26,2.26,0,0,0-2.26,2.23v.16a5.17,5.17,0,0,0-1.5-.24c-2.21,0-3.69,1.72-3.69,4.29s2.58,4.29,4.89,4.29a4.05,4.05,0,0,0,.7-.07,9.3,9.3,0,0,0,2.84,4.24H387a9.31,9.31,0,0,0,3.31-7.13C390.28,159.9,390.25,157.82,390.21,155.25Zm-18.3,7.06c-1.56,0-3.45-1.27-3.45-2.85,0-.67.16-2.86,2.25-2.86a3.75,3.75,0,0,1,1.48.34c0,1.77-.05,3.17-.05,3.85a9.19,9.19,0,0,0,.14,1.5Z" style="fill: rgb(224, 224, 224); transform-origin: 378.67px 160.45px;" id="elg7r9r11my6e" class="animable"></path><rect x="152.6" y="130.22" width="66.15" height="144.97" style="fill: rgb(235, 235, 235); transform-origin: 185.675px 202.705px;" id="els9zh3zemrr" class="animable"></rect><rect x="86.45" y="130.22" width="66.15" height="144.97" style="fill: rgb(235, 235, 235); transform-origin: 119.525px 202.705px;" id="elmj441rx50yk" class="animable"></rect><path d="M188.93,367.64h22.13V378H200a4.75,4.75,0,0,0-4.75-4.75h-6.32Z" style="fill: rgb(224, 224, 224); transform-origin: 199.995px 372.82px;" id="ellshzwzl0ay" class="animable"></path><path d="M116.28,367.64H94.14V378h11.07a4.75,4.75,0,0,1,4.75-4.75h6.32Z" style="fill: rgb(224, 224, 224); transform-origin: 105.21px 372.82px;" id="elhfxkq0385ab" class="animable"></path><rect x="86.45" y="275.18" width="132.3" height="45.67" style="fill: rgb(235, 235, 235); transform-origin: 152.6px 298.015px;" id="elqzigr9wkmui" class="animable"></rect><rect x="86.45" y="320.85" width="132.3" height="45.67" style="fill: rgb(235, 235, 235); transform-origin: 152.6px 343.685px;" id="eldjq3g66tuh5" class="animable"></rect><g id="elys2c0dsn4d"><rect x="150.29" y="213.75" width="4.62" height="132.3" style="fill: rgb(224, 224, 224); transform-origin: 152.6px 279.9px; transform: rotate(90deg);" class="animable"></rect></g><g id="el8cxttrjlau"><rect x="117.22" y="101.45" width="4.62" height="66.15" style="fill: rgb(224, 224, 224); transform-origin: 119.53px 134.525px; transform: rotate(90deg);" class="animable"></rect></g><g id="elh9efgmlwsu7"><rect x="183.37" y="101.45" width="4.62" height="66.15" style="fill: rgb(224, 224, 224); transform-origin: 185.68px 134.525px; transform: rotate(90deg);" class="animable"></rect></g><g id="eljajgzjcwxka"><rect x="150.29" y="259.06" width="4.62" height="132.3" style="fill: rgb(224, 224, 224); transform-origin: 152.6px 325.21px; transform: rotate(90deg);" class="animable"></rect></g><path d="M218.75,127.91H84.14v240.6H221.06V127.91ZM216.44,278v40.63H88.76V278Zm-61.53-4.62V132.53h61.53V273.4Zm-4.62-140.87V273.4H88.76V132.53ZM88.76,363.89V323.27H216.44v40.62Z" style="fill: rgb(245, 245, 245); transform-origin: 152.6px 248.21px;" id="elcqkd13ifssl" class="animable"></path><path d="M106.28,367.64H84.14V378H95.21a4.75,4.75,0,0,1,4.75-4.75h6.32Z" style="fill: rgb(245, 245, 245); transform-origin: 95.21px 372.82px;" id="el3lqolr35pac" class="animable"></path><path d="M198.93,367.64h22.13V378H210a4.75,4.75,0,0,0-4.75-4.75h-6.32Z" style="fill: rgb(245, 245, 245); transform-origin: 209.995px 372.82px;" id="el2pnqewtjw8u" class="animable"></path><path d="M158.27,302a5.67,5.67,0,1,1-5.67-5.67A5.67,5.67,0,0,1,158.27,302Z" style="fill: rgb(224, 224, 224); transform-origin: 152.6px 302px;" id="elzv3btgxx1wh" class="animable"></path><path d="M158.27,298a5.67,5.67,0,1,1-5.67-5.67A5.67,5.67,0,0,1,158.27,298Z" style="fill: rgb(245, 245, 245); transform-origin: 152.6px 298px;" id="elg13phoecugk" class="animable"></path><path d="M158.27,347.68A5.67,5.67,0,1,1,152.6,342,5.67,5.67,0,0,1,158.27,347.68Z" style="fill: rgb(224, 224, 224); transform-origin: 152.6px 347.67px;" id="elje8qnaavnfo" class="animable"></path><path d="M158.27,343.68A5.67,5.67,0,1,1,152.6,338,5.67,5.67,0,0,1,158.27,343.68Z" style="fill: rgb(245, 245, 245); transform-origin: 152.6px 343.67px;" id="ellli6z7cg4r" class="animable"></path><path d="M145.11,199.87a2.84,2.84,0,1,0-5.67,0v9.67a2.84,2.84,0,0,0,5.67,0Z" style="fill: rgb(224, 224, 224); transform-origin: 142.275px 204.537px;" id="elntna6vsd38c" class="animable"></path><path d="M145.11,195.87a2.84,2.84,0,1,0-5.67,0v9.67a2.84,2.84,0,0,0,5.67,0Z" style="fill: rgb(245, 245, 245); transform-origin: 142.275px 200.537px;" id="el44m29mfaf" class="animable"></path><path d="M165.94,199.87a2.84,2.84,0,1,0-5.67,0v9.67a2.84,2.84,0,0,0,5.67,0Z" style="fill: rgb(224, 224, 224); transform-origin: 163.105px 204.536px;" id="ele0ksq2bpfnv" class="animable"></path><path d="M165.94,195.87a2.84,2.84,0,1,0-5.67,0v9.67a2.84,2.84,0,0,0,5.67,0Z" style="fill: rgb(245, 245, 245); transform-origin: 163.105px 200.536px;" id="elsfj79orvus" class="animable"></path><g id="el3tsajmk9koy"><rect x="372.09" y="146.82" width="4.62" height="132.3" style="fill: rgb(245, 245, 245); transform-origin: 374.4px 212.97px; transform: rotate(90deg);" class="animable"></rect></g><path d="M343.51,215.28H321.38v10.37h11.07a4.74,4.74,0,0,1,4.75-4.75h6.31Z" style="fill: rgb(224, 224, 224); transform-origin: 332.445px 220.465px;" id="elked2w1739hg" class="animable"></path><path d="M333.51,215.28H317.38v10.37h5.07a4.74,4.74,0,0,1,4.75-4.75h6.31Z" style="fill: rgb(245, 245, 245); transform-origin: 325.445px 220.465px;" id="elio8occbob0k" class="animable"></path><path d="M405.29,215.28h22.14v10.37H416.36a4.75,4.75,0,0,0-4.75-4.75h-6.32Z" style="fill: rgb(235, 235, 235); transform-origin: 416.36px 220.465px;" id="eltfa8xy51l5o" class="animable"></path><path d="M415.29,215.28h16.14v10.37h-5.07a4.75,4.75,0,0,0-4.75-4.75h-6.32Z" style="fill: rgb(245, 245, 245); transform-origin: 423.36px 220.465px;" id="el1u9vce7sf63" class="animable"></path><path d="M379.25,196.47a13.92,13.92,0,0,1,27.83,0v14.39H379.25Z" style="fill: rgb(240, 240, 240); transform-origin: 393.165px 196.892px;" id="elhn6162fbb6e" class="animable"></path><g id="el6q66v49xkwo"><circle cx="393.17" cy="196.47" r="10.87" style="fill: rgb(250, 250, 250); transform-origin: 393.17px 196.47px; transform: rotate(-76.72deg);" class="animable"></circle></g><path d="M393.17,187.31a10.86,10.86,0,0,1,10.82,10c0-.28.05-.56.05-.85a10.87,10.87,0,1,0-21.74,0c0,.29,0,.57,0,.85A10.86,10.86,0,0,1,393.17,187.31Z" style="fill: rgb(224, 224, 224); transform-origin: 393.17px 191.439px;" id="elby7cuhkkm3n" class="animable"></path><path d="M400,196.46h-5.71v-5.71a1.15,1.15,0,1,0-2.3,0v6.86a1.14,1.14,0,0,0,1.15,1.15H400a1.15,1.15,0,1,0,0-2.3Z" style="fill: rgb(224, 224, 224); transform-origin: 396.57px 194.18px;" id="elknwgd4ma0l" class="animable"></path><path d="M400,197.62a1.15,1.15,0,1,0,0-2.3h-6.86a1.15,1.15,0,0,0,0,2.3Z" style="fill: rgb(245, 245, 245); transform-origin: 396.57px 196.47px;" id="elr3luoebxyck" class="animable"></path><path d="M394.32,189.6a1.15,1.15,0,1,0-2.3,0v6.87a1.15,1.15,0,1,0,2.3,0Z" style="fill: rgb(235, 235, 235); transform-origin: 393.17px 193.035px;" id="elzpqlxsl722" class="animable"></path></g><g id="freepik--Shadow--inject-9" class="animable" style="transform-origin: 245.18px 412.39px;"><ellipse id="freepik--path--inject-9" cx="245.18" cy="412.39" rx="193.89" ry="11.32" style="fill: rgb(245, 245, 245); transform-origin: 245.18px 412.39px;" class="animable"></ellipse></g><g id="freepik--Settings--inject-9" class="animable" style="transform-origin: 289.755px 235.325px;"><path d="M330.19,383.4H225.5a14.64,14.64,0,0,1-14.76-15.58l13.6-259.54a16.61,16.61,0,0,1,16.4-15.58H345.42a14.64,14.64,0,0,1,14.77,15.58l-13.6,259.54A16.62,16.62,0,0,1,330.19,383.4Z" style="fill: rgb(64, 123, 255); transform-origin: 285.465px 238.05px;" id="el5mf3i3w5z42" class="animable"></path><path d="M344.88,103.15H240.19a10.55,10.55,0,0,0-10.4,9.88l-13.1,250a9.28,9.28,0,0,0,9.36,9.88H330.74a10.55,10.55,0,0,0,10.4-9.88l13.1-250A9.28,9.28,0,0,0,344.88,103.15Z" style="fill: rgb(64, 123, 255); transform-origin: 285.465px 238.03px;" id="elacsj8j0p6hs" class="animable"></path><g id="elub27kwiaxxl"><path d="M344.88,103.15H240.19a10.55,10.55,0,0,0-10.4,9.88l-13.1,250a9.28,9.28,0,0,0,9.36,9.88H330.74a10.55,10.55,0,0,0,10.4-9.88l13.1-250A9.28,9.28,0,0,0,344.88,103.15Z" style="fill: rgb(255, 255, 255); opacity: 0.8; transform-origin: 285.465px 238.03px;" class="animable"></path></g><path d="M354,92.7h-8.55a14.64,14.64,0,0,1,14.77,15.58l-13.6,259.54a16.61,16.61,0,0,1-16.4,15.58h8.55a16.61,16.61,0,0,0,16.4-15.58l13.6-259.54A14.64,14.64,0,0,0,354,92.7Z" style="fill: rgb(64, 123, 255); transform-origin: 349.51px 238.05px;" id="elirpibnngl7" class="animable"></path><g id="elmkzzrvij76"><path d="M354,92.7h-8.55a14.64,14.64,0,0,1,14.77,15.58l-13.6,259.54a16.61,16.61,0,0,1-16.4,15.58h8.55a16.61,16.61,0,0,0,16.4-15.58l13.6-259.54A14.64,14.64,0,0,0,354,92.7Z" style="fill: rgb(255, 255, 255); opacity: 0.4; transform-origin: 349.51px 238.05px;" class="animable"></path></g><g id="el966aayht77t"><path d="M240.18,103.15,254.4,373h37l-14.22-269.8H240.18Z" style="fill: rgb(255, 255, 255); opacity: 0.4; transform-origin: 265.79px 238.075px;" class="animable"></path></g><g id="elly9z9ofldts"><polygon points="298.1 372.95 306.43 372.95 292.21 103.15 283.88 103.15 298.1 372.95" style="fill: rgb(255, 255, 255); opacity: 0.4; transform-origin: 295.155px 238.05px;" class="animable"></polygon></g><path d="M245.46,88.15h3.67a.45.45,0,0,0,0-.9h-3.67a.45.45,0,0,0,0,.9Z" style="fill: rgb(64, 123, 255); transform-origin: 247.295px 87.7px;" id="elxfuscig2y4e" class="animable"></path><path d="M218.78,117.77c.23-4.28.05-8.85,1-13,2.12-9.64,10.78-16.24,20.48-16.57.57,0,.58-.92,0-.9a22.46,22.46,0,0,0-20,13.26c-2.36,5.35-2,11.54-2.32,17.26,0,.58.87.58.9,0Z" style="fill: rgb(64, 123, 255); transform-origin: 229.316px 102.777px;" id="el4fh573hpuof" class="animable"></path><path d="M300.78,156.7h-24a7.67,7.67,0,0,1-7.74-8.16l1.26-24a8.69,8.69,0,0,1,8.59-8.16h24a7.66,7.66,0,0,1,7.73,8.16l-1.25,24A8.71,8.71,0,0,1,300.78,156.7Z" style="fill: rgb(255, 255, 255); transform-origin: 289.83px 136.54px;" id="elm358knlic6" class="animable"></path><path d="M285.46,140.16a10.8,10.8,0,0,1-2.81-6.7h-.1c-1,0-1.7-1.07-1.63-2.38s.91-2.38,1.88-2.38l.25,0,.18-.64c5.79-.31,9-2.22,10.77-3.78a6.14,6.14,0,0,0,3.8,3.27c.09.37.17.76.23,1.15l.25,0c1,0,1.71,1.06,1.64,2.38s-.92,2.38-1.89,2.38h-.1a12.27,12.27,0,0,1-3.19,6.39,10.38,10.38,0,0,0,4.24.43c5.85-.34,2.76-12.37-.39-16.68-1.92-2.64-3-3.87-4.09-3.38-1.22-.67-8.55-3.69-13.29,5.2C276.29,134.65,274.83,143.05,285.46,140.16Z" style="fill: rgb(64, 123, 255); transform-origin: 289.868px 129.962px;" id="el36a6d66yer3" class="animable"></path><path d="M301.57,146.63l-6.05-1.93s-5.23,2-6.48,7c-.72-5-5.74-7-5.74-7l-6.25,1.93c-3.75.52-5.57,3.73-6.45,7.05a7.69,7.69,0,0,0,6.18,3h24a8.63,8.63,0,0,0,6.5-3C306.75,150.36,305.26,147.15,301.57,146.63Z" style="fill: rgb(64, 123, 255); transform-origin: 288.94px 150.69px;" id="eluj3xv3skkch" class="animable"></path><path d="M318.15,153.17a9.53,9.53,0,0,0,0-1.42l2.39-2.06a12.21,12.21,0,0,0-1-2.86l-3.07.16a9.53,9.53,0,0,0-1.9-2l.32-3.06a12.2,12.2,0,0,0-2.8-1.18L309.85,143a10.88,10.88,0,0,0-1.41-.1,11.19,11.19,0,0,0-1.43.1l-1.93-2.27a13.33,13.33,0,0,0-2.92,1.18V145a11.17,11.17,0,0,0-2.11,2l-3.05-.16a14.08,14.08,0,0,0-1.34,2.86l2.17,2.06a9.34,9.34,0,0,0-.17,1.42,9.44,9.44,0,0,0,0,1.41l-2.38,2.06a12.66,12.66,0,0,0,1,2.86l3.07-.16a10.07,10.07,0,0,0,1.9,2l-.31,3.06a12.12,12.12,0,0,0,2.79,1.18l2.18-2.27a10.88,10.88,0,0,0,1.41.1,11,11,0,0,0,1.42-.1l1.94,2.27a13.74,13.74,0,0,0,2.92-1.18v-3.06a11.81,11.81,0,0,0,2.11-2l3.05.16a13.53,13.53,0,0,0,1.33-2.86L318,154.58A10.86,10.86,0,0,0,318.15,153.17Zm-10.42,3.21a3,3,0,0,1-3.05-3.21,3.44,3.44,0,0,1,3.39-3.22,3,3,0,0,1,3,3.22A3.42,3.42,0,0,1,307.73,156.38Z" style="fill: rgb(64, 123, 255); transform-origin: 307.91px 153.16px;" id="elxykkpsvi9l" class="animable"></path><g id="elsmtokadtgl"><path d="M318.15,153.17a9.53,9.53,0,0,0,0-1.42l2.39-2.06a12.21,12.21,0,0,0-1-2.86l-3.07.16a9.53,9.53,0,0,0-1.9-2l.32-3.06a12.2,12.2,0,0,0-2.8-1.18L309.85,143a10.88,10.88,0,0,0-1.41-.1,11.19,11.19,0,0,0-1.43.1l-1.93-2.27a13.33,13.33,0,0,0-2.92,1.18V145a11.17,11.17,0,0,0-2.11,2l-3.05-.16a14.08,14.08,0,0,0-1.34,2.86l2.17,2.06a9.34,9.34,0,0,0-.17,1.42,9.44,9.44,0,0,0,0,1.41l-2.38,2.06a12.66,12.66,0,0,0,1,2.86l3.07-.16a10.07,10.07,0,0,0,1.9,2l-.31,3.06a12.12,12.12,0,0,0,2.79,1.18l2.18-2.27a10.88,10.88,0,0,0,1.41.1,11,11,0,0,0,1.42-.1l1.94,2.27a13.74,13.74,0,0,0,2.92-1.18v-3.06a11.81,11.81,0,0,0,2.11-2l3.05.16a13.53,13.53,0,0,0,1.33-2.86L318,154.58A10.86,10.86,0,0,0,318.15,153.17Zm-10.42,3.21a3,3,0,0,1-3.05-3.21,3.44,3.44,0,0,1,3.39-3.22,3,3,0,0,1,3,3.22A3.42,3.42,0,0,1,307.73,156.38Z" style="fill: rgb(255, 255, 255); opacity: 0.4; transform-origin: 307.91px 153.16px;" class="animable"></path></g><path d="M307.73,156.38a3,3,0,0,1-3.05-3.21,3.44,3.44,0,0,1,3.39-3.22,3,3,0,0,1,3,3.22A3.42,3.42,0,0,1,307.73,156.38Z" style="fill: rgb(255, 255, 255); transform-origin: 307.875px 153.165px;" id="elsad15q7nd69" class="animable"></path><polygon points="287.11 267.37 283.7 267.37 284.01 261.51 287.41 261.51 287.11 267.37" style="fill: rgb(64, 123, 255); transform-origin: 285.555px 264.44px;" id="elc4oxe45r5tk" class="animable"></polygon><polygon points="302.62 267.37 299.22 267.37 299.73 257.71 303.13 257.71 302.62 267.37" style="fill: rgb(64, 123, 255); transform-origin: 301.175px 262.54px;" id="elo4sulckjyq" class="animable"></polygon><polygon points="318.14 267.37 314.74 267.37 315.44 253.91 318.85 253.91 318.14 267.37" style="fill: rgb(64, 123, 255); transform-origin: 316.795px 260.64px;" id="elk5afgs2kfe" class="animable"></polygon><polygon points="333.66 267.37 330.25 267.37 331.16 250.12 334.56 250.12 333.66 267.37" style="fill: rgb(255, 255, 255); transform-origin: 332.405px 258.745px;" id="el1cctioieaci" class="animable"></polygon><path d="M240.08,267.37h17.3a9.22,9.22,0,0,0,9.11-8.65,8.13,8.13,0,0,0-8.2-8.65H241a9.22,9.22,0,0,0-9.11,8.65A8.13,8.13,0,0,0,240.08,267.37Z" style="fill: rgb(255, 255, 255); transform-origin: 249.19px 258.72px;" id="el88tim80tjzd" class="animable"></path><path d="M240.89,252h17.3a8.12,8.12,0,0,1,8.2,7.7c.05-.31.08-.63.1-.95a8.13,8.13,0,0,0-8.2-8.65H241a9.22,9.22,0,0,0-9.11,8.65c0,.32,0,.64,0,.95A9.25,9.25,0,0,1,240.89,252Z" style="fill: rgb(64, 123, 255); transform-origin: 249.198px 254.9px;" id="eltml0fjmihde" class="animable"></path><g id="el0cmqg3bkurp"><path d="M240.89,252h17.3a8.12,8.12,0,0,1,8.2,7.7c.05-.31.08-.63.1-.95a8.13,8.13,0,0,0-8.2-8.65H241a9.22,9.22,0,0,0-9.11,8.65c0,.32,0,.64,0,.95A9.25,9.25,0,0,1,240.89,252Z" style="fill: rgb(255, 255, 255); opacity: 0.3; transform-origin: 249.198px 254.9px;" class="animable"></path></g><g id="elxatyewf25j"><ellipse cx="240.53" cy="258.72" rx="8.88" ry="8.43" style="fill: rgb(64, 123, 255); transform-origin: 240.53px 258.72px; transform: rotate(-44.26deg);" class="animable"></ellipse></g><polygon points="230.33 341.94 226.93 341.94 227.34 334.18 230.74 334.18 230.33 341.94" style="fill: rgb(64, 123, 255); transform-origin: 228.835px 338.06px;" id="el2w0f15qbufo" class="animable"></polygon><polygon points="242.95 340.04 239.55 340.04 239.71 337.03 243.11 337.03 242.95 340.04" style="fill: rgb(64, 123, 255); transform-origin: 241.33px 338.535px;" id="ellrg82hi0i1" class="animable"></polygon><polygon points="255.42 340.99 252.02 340.99 252.27 336.08 255.68 336.08 255.42 340.99" style="fill: rgb(64, 123, 255); transform-origin: 253.85px 338.535px;" id="elmpgpqwzfqn" class="animable"></polygon><polygon points="267.99 340.04 264.58 340.04 264.74 337.03 268.15 337.03 267.99 340.04" style="fill: rgb(64, 123, 255); transform-origin: 266.365px 338.535px;" id="elon205f0ts1m" class="animable"></polygon><polygon points="280.41 341.94 277 341.94 277.41 334.18 280.81 334.18 280.41 341.94" style="fill: rgb(64, 123, 255); transform-origin: 278.905px 338.06px;" id="el4319jgi16ij" class="animable"></polygon><polygon points="293.02 340.04 289.62 340.04 289.78 337.03 293.18 337.03 293.02 340.04" style="fill: rgb(64, 123, 255); transform-origin: 291.4px 338.535px;" id="elpiqi5chcxv" class="animable"></polygon><polygon points="305.49 340.99 302.09 340.99 302.35 336.08 305.75 336.08 305.49 340.99" style="fill: rgb(64, 123, 255); transform-origin: 303.92px 338.535px;" id="el5kt81luvp9m" class="animable"></polygon><polygon points="318.06 340.04 314.66 340.04 314.81 337.03 318.22 337.03 318.06 340.04" style="fill: rgb(64, 123, 255); transform-origin: 316.44px 338.535px;" id="el8eznmduw9kh" class="animable"></polygon><polygon points="330.48 341.94 327.08 341.94 327.48 334.18 330.89 334.18 330.48 341.94" style="fill: rgb(64, 123, 255); transform-origin: 328.985px 338.06px;" id="el1x6cqbm3z5x" class="animable"></polygon><g id="el1qom9soq03h"><g style="opacity: 0.3; transform-origin: 278.91px 338.06px;" class="animable"><polygon points="230.33 341.94 226.93 341.94 227.34 334.18 230.74 334.18 230.33 341.94" id="elvqh862iz4tr" class="animable" style="transform-origin: 228.835px 338.06px;"></polygon><polygon points="242.95 340.04 239.55 340.04 239.71 337.03 243.11 337.03 242.95 340.04" id="ele0u38sg563u" class="animable" style="transform-origin: 241.33px 338.535px;"></polygon><polygon points="255.42 340.99 252.02 340.99 252.27 336.08 255.68 336.08 255.42 340.99" id="elwedvm80326b" class="animable" style="transform-origin: 253.85px 338.535px;"></polygon><polygon points="267.99 340.04 264.58 340.04 264.74 337.03 268.15 337.03 267.99 340.04" id="elhey5860hyy6" class="animable" style="transform-origin: 266.365px 338.535px;"></polygon><polygon points="280.41 341.94 277 341.94 277.41 334.18 280.81 334.18 280.41 341.94" id="eljzwd4185jn" class="animable" style="transform-origin: 278.905px 338.06px;"></polygon><polygon points="293.02 340.04 289.62 340.04 289.78 337.03 293.18 337.03 293.02 340.04" id="el7wzexgnp6v3" class="animable" style="transform-origin: 291.4px 338.535px;"></polygon><polygon points="305.49 340.99 302.09 340.99 302.35 336.08 305.75 336.08 305.49 340.99" id="elwzg600un6xc" class="animable" style="transform-origin: 303.92px 338.535px;"></polygon><polygon points="318.06 340.04 314.66 340.04 314.81 337.03 318.22 337.03 318.06 340.04" id="el245raqskp39" class="animable" style="transform-origin: 316.44px 338.535px;"></polygon><polygon points="330.48 341.94 327.08 341.94 327.48 334.18 330.89 334.18 330.48 341.94" id="eleze1cpxlsl7" class="animable" style="transform-origin: 328.985px 338.06px;"></polygon></g></g><path d="M270.8,343.22c.05-.86.2-3.83.25-4.68s.2-3.83.24-4.68a4.4,4.4,0,0,0-4.43-4.69,5,5,0,0,0-4.93,4.69c-.05.85-.2,3.82-.25,4.68s-.2,3.82-.24,4.68a4.4,4.4,0,0,0,4.43,4.68A5,5,0,0,0,270.8,343.22Z" style="fill: rgb(64, 123, 255); transform-origin: 266.365px 338.535px;" id="el691wmgsfpc" class="animable"></path><path d="M237.89,309.07H255.2a9.21,9.21,0,0,0,9.1-8.65,8.12,8.12,0,0,0-8.19-8.65H238.8a9.22,9.22,0,0,0-9.11,8.65A8.13,8.13,0,0,0,237.89,309.07Z" style="fill: rgb(255, 255, 255); transform-origin: 246.995px 300.42px;" id="elb2qj929bpm9" class="animable"></path><path d="M238.7,293.67H256a8.11,8.11,0,0,1,8.19,7.7,7.46,7.46,0,0,0,.1-.95,8.12,8.12,0,0,0-8.19-8.65H238.8a9.22,9.22,0,0,0-9.11,8.65c0,.32,0,.64,0,.95A9.23,9.23,0,0,1,238.7,293.67Z" style="fill: rgb(64, 123, 255); transform-origin: 246.999px 296.57px;" id="el6r5h34m0ggi" class="animable"></path><g id="el7l909y6n5dm"><path d="M238.7,293.67H256a8.11,8.11,0,0,1,8.19,7.7,7.46,7.46,0,0,0,.1-.95,8.12,8.12,0,0,0-8.19-8.65H238.8a9.22,9.22,0,0,0-9.11,8.65c0,.32,0,.64,0,.95A9.23,9.23,0,0,1,238.7,293.67Z" style="fill: rgb(255, 255, 255); opacity: 0.3; transform-origin: 246.999px 296.57px;" class="animable"></path></g><path d="M247,300.42a9.22,9.22,0,0,1,9.11-8.65,8.12,8.12,0,0,1,8.19,8.65,9.21,9.21,0,0,1-9.1,8.65A8.13,8.13,0,0,1,247,300.42Z" style="fill: rgb(64, 123, 255); transform-origin: 255.65px 300.42px;" id="elbfv2p4xort9" class="animable"></path><path d="M239.59,188H334a4.9,4.9,0,0,0,4.84-4.59,4.32,4.32,0,0,0-4.35-4.59H240.07a4.89,4.89,0,0,0-4.83,4.59A4.3,4.3,0,0,0,239.59,188Z" style="fill: rgb(255, 255, 255); transform-origin: 287.039px 183.41px;" id="eleasraot57dl" class="animable"></path><path d="M240.07,180.85h94.37a4.29,4.29,0,0,1,4.23,3.38,6.84,6.84,0,0,0,.12-.79,4.32,4.32,0,0,0-4.35-4.59H240.07a4.89,4.89,0,0,0-4.83,4.59,4.08,4.08,0,0,0,.12,1.22A4.89,4.89,0,0,1,240.07,180.85Z" style="fill: rgb(64, 123, 255); transform-origin: 287.016px 181.755px;" id="elf1hxlhdld6p" class="animable"></path><g id="eloue03qe0nvf"><path d="M240.07,180.85h94.37a4.29,4.29,0,0,1,4.23,3.38,6.84,6.84,0,0,0,.12-.79,4.32,4.32,0,0,0-4.35-4.59H240.07a4.89,4.89,0,0,0-4.83,4.59,4.08,4.08,0,0,0,.12,1.22A4.89,4.89,0,0,1,240.07,180.85Z" style="fill: rgb(255, 255, 255); opacity: 0.3; transform-origin: 287.016px 181.755px;" class="animable"></path></g><g id="eldjftg6e2diu"><ellipse cx="256.85" cy="183.44" rx="8.88" ry="8.43" style="fill: rgb(64, 123, 255); transform-origin: 256.85px 183.44px; transform: rotate(-44.25deg);" class="animable"></ellipse></g><path d="M332.35,295.1a3.13,3.13,0,0,0-3.16-3.33H301.33a3.56,3.56,0,0,0-3.51,3.33l-.56,10.64a3.13,3.13,0,0,0,3.16,3.33h27.86a3.56,3.56,0,0,0,3.51-3.33Z" style="fill: rgb(64, 123, 255); transform-origin: 314.805px 300.42px;" id="eltrgz03mtypf" class="animable"></path><path d="M301.23,293.67h27.86a3.13,3.13,0,0,1,3.16,3.33l.1-1.9a3.13,3.13,0,0,0-3.16-3.33H301.33a3.56,3.56,0,0,0-3.51,3.33l-.1,1.9A3.56,3.56,0,0,1,301.23,293.67Z" style="fill: rgb(64, 123, 255); transform-origin: 315.038px 294.385px;" id="el4w5m7ej2sur" class="animable"></path><g id="elvkgclmgfqy"><path d="M301.23,293.67h27.86a3.13,3.13,0,0,1,3.16,3.33l.1-1.9a3.13,3.13,0,0,0-3.16-3.33H301.33a3.56,3.56,0,0,0-3.51,3.33l-.1,1.9A3.56,3.56,0,0,1,301.23,293.67Z" style="opacity: 0.3; transform-origin: 315.038px 294.385px;" class="animable"></path></g><path d="M315.13,295.1a3.13,3.13,0,0,0-3.16-3.33H301.33a3.56,3.56,0,0,0-3.51,3.33l-.56,10.64a3.13,3.13,0,0,0,3.16,3.33h10.64a3.56,3.56,0,0,0,3.51-3.33Z" style="fill: rgb(255, 255, 255); transform-origin: 306.195px 300.42px;" id="el6uo95q7boq2" class="animable"></path><polygon points="307.74 303.35 304.34 303.35 304.65 297.49 308.05 297.49 307.74 303.35" style="fill: rgb(64, 123, 255); transform-origin: 306.195px 300.42px;" id="el4wmnmdfgh2c" class="animable"></polygon><path d="M332.46,216.49H238.1a4.91,4.91,0,0,0-4.84,4.59,4.31,4.31,0,0,0,4.35,4.59H332a4.88,4.88,0,0,0,4.83-4.59A4.31,4.31,0,0,0,332.46,216.49Z" style="fill: rgb(64, 123, 255); transform-origin: 285.045px 221.08px;" id="el4cuqsz867tg" class="animable"></path><g id="el1lnj4814et5"><path d="M238.1,218.49h94.36a4.28,4.28,0,0,1,4.23,3.37,4,4,0,0,0,.12-.78,4.31,4.31,0,0,0-4.35-4.59H238.1a4.74,4.74,0,0,0-4.72,5.81A4.91,4.91,0,0,1,238.1,218.49Z" style="opacity: 0.3; transform-origin: 285.038px 219.394px;" class="animable"></path></g><path d="M317.82,229.73h-7.23a4.74,4.74,0,0,1-4.78-5l.38-7.23a5.37,5.37,0,0,1,5.31-5h7.23a4.73,4.73,0,0,1,4.77,5l-.38,7.23A5.37,5.37,0,0,1,317.82,229.73Z" style="fill: rgb(255, 255, 255); transform-origin: 314.655px 221.115px;" id="ele8qc5un0xgg" class="animable"></path><polygon points="316.58 224.01 313.18 224.01 313.49 218.15 316.89 218.15 316.58 224.01" style="fill: rgb(64, 123, 255); transform-origin: 315.035px 221.08px;" id="el7h1gj9qbb7v" class="animable"></polygon></g><g id="freepik--Character--inject-9" class="animable animator-active" style="transform-origin: 192.931px 266.415px;"><path d="M167.81,190.56,155,205.06c1,6.92,3.09,27,3.09,27-1.92,2.54-6.61,1.82-6.61,1.82a66.53,66.53,0,0,1-4.58-30.08c.9-9.37,12.92-27.8,21.48-33a16.76,16.76,0,0,1,4.49-1.89l1.69-.2-6,22.29Z" style="fill: rgb(64, 123, 255); transform-origin: 160.625px 201.342px;" id="el3h6n1j6b35f" class="animable"></path><g id="elfdmxpu58mud"><path d="M167.81,190.56,155,205.06c1,6.92,3.09,27,3.09,27-1.92,2.54-6.61,1.82-6.61,1.82a66.53,66.53,0,0,1-4.58-30.08c.9-9.37,12.92-27.8,21.48-33a16.76,16.76,0,0,1,4.49-1.89l1.69-.2-6,22.29Z" style="opacity: 0.6; transform-origin: 160.625px 201.342px;" class="animable"></path></g><path d="M157.39,233.64l3.1,3.31a1.14,1.14,0,0,1,.23.38l1.82,5.12a1.11,1.11,0,0,1,0,.84l-.88,1.81a1.08,1.08,0,0,1-.76.59L154.57,247a1.09,1.09,0,0,1-1.29-.87l-1.22-6.74a1,1,0,0,1,0-.41l.84-4.32a1.09,1.09,0,0,1,.88-.86l2.63-.47A1.09,1.09,0,0,1,157.39,233.64Z" style="fill: rgb(250, 178, 123); transform-origin: 157.331px 240.167px;" id="el0tsy1wm9eums" class="animable"></path><polygon points="160.06 232.88 150.2 237.35 150.07 232.58 159.17 229.08 160.06 232.88" style="fill: rgb(64, 123, 255); transform-origin: 155.065px 233.215px;" id="elntntmbgpmv" class="animable"></polygon><g id="el5wniqvizer4"><polygon points="160.06 232.88 150.2 237.35 150.07 232.58 159.17 229.08 160.06 232.88" style="fill: rgb(255, 255, 255); opacity: 0.5; transform-origin: 155.065px 233.215px;" class="animable"></polygon></g><path d="M156.24,250.52c-5.88,21-3.39,52-6.62,72.79-2.22,14.32-17.4,61.45-17.4,61.45l13.4,4.06s16.72-41.51,20-53.88c5.26-20.07,13.16-58.15,13.16-58.15s2.95-10.8,1.61-12S156.24,250.52,156.24,250.52Z" style="fill: rgb(64, 123, 255); transform-origin: 156.48px 319.67px;" id="el0eynkm20unf" class="animable"></path><g id="elkvrs8ekeqbm"><path d="M171,264.94l9.69,3.14-3.63,17S178.84,268.82,171,264.94Z" style="opacity: 0.3; transform-origin: 175.845px 275.01px;" class="animable"></path></g><polygon points="134.91 384.15 132.51 391.76 139.01 394.68 142.23 386.6 134.91 384.15" style="fill: rgb(250, 178, 123); transform-origin: 137.37px 389.415px;" id="elijlggl4min" class="animable"></polygon><g id="elrr54u8m56r"><polygon points="133.49 388.66 140.35 391.31 141.26 389.02 134.05 386.89 133.49 388.66" style="opacity: 0.2; transform-origin: 137.375px 389.1px;" class="animable"></polygon></g><polygon points="132.36 380.59 148.75 385.07 145.78 390.35 131.44 386.12 132.36 380.59" style="fill: rgb(64, 123, 255); transform-origin: 140.095px 385.47px;" id="elhjriww9f0tq" class="animable"></polygon><g id="elfbsm52nvmfj"><polygon points="132.36 380.59 148.75 385.07 145.78 390.35 131.44 386.12 132.36 380.59" style="fill: rgb(255, 255, 255); opacity: 0.5; transform-origin: 140.095px 385.47px;" class="animable"></polygon></g><path d="M140.4,395.72a.22.22,0,0,1-.09-.21.19.19,0,0,1,.16-.15c.15,0,3.41-.5,4.55.35a1,1,0,0,1,.41.65.73.73,0,0,1-.3.79,3.53,3.53,0,0,1-2.47-.3A14.45,14.45,0,0,1,140.4,395.72Zm.68,0c1.36.74,3.29,1.48,3.84,1.12.08,0,.17-.13.12-.41a.51.51,0,0,0-.26-.39,1.14,1.14,0,0,0-.32-.18A8.94,8.94,0,0,0,141.08,395.7Z" style="fill: rgb(64, 123, 255); transform-origin: 142.881px 396.232px;" id="elq4o6xtzhzp" class="animable"></path><path d="M140.31,395.67a.2.2,0,0,1,0-.2c.05-.09,1.06-2.07,2.35-2.49a1.44,1.44,0,0,1,1.13.08c.48.25.54.56.47.78-.17.92-2.66,1.86-3.73,1.91a.11.11,0,0,1-.08,0A.17.17,0,0,1,140.31,395.67Zm3.2-2.31a1,1,0,0,0-.71,0,4.62,4.62,0,0,0-1.94,2c1.17-.19,2.89-1,3-1.55,0-.05,0-.19-.28-.35l-.11,0Z" style="fill: rgb(64, 123, 255); transform-origin: 142.284px 394.329px;" id="elyr6giedkm9o" class="animable"></path><path d="M140,394.34l-8.35-3.27a.72.72,0,0,0-.87.26l-4.17,6.21a1.21,1.21,0,0,0,.31,1.67l.23.12c3,1.12,5.77,2,9.52,3.48,4.42,1.74,3.09,1.83,8.26,3.94,3.12,1.27,5.09-2.07,3.83-2.76-5.78-3.15-5.69-5.24-7.19-8.33A2.84,2.84,0,0,0,140,394.34Z" style="fill: rgb(38, 50, 56); transform-origin: 137.774px 399.025px;" id="elids5pe8kx4m" class="animable"></path><polygon points="194.48 390.35 194.63 397.68 201.72 398.36 202.15 390.35 194.48 390.35" style="fill: rgb(250, 178, 123); transform-origin: 198.315px 394.355px;" id="elmta4nps3tar" class="animable"></polygon><g id="elzisltls1so"><polygon points="201.97 393.75 202.07 391.83 194.52 392.14 194.57 394.38 201.97 393.75" style="opacity: 0.2; transform-origin: 198.295px 393.105px;" class="animable"></polygon></g><path d="M156.24,250.52c2.22-10.58,11.08-20,11.08-20l34,2.18s2.14,21.84,2.64,29.14c1,14.74,5.14,37.63,5.25,52.41.15,20-4.43,73.07-4.43,73.07l-12.84,1.52s.19-49.09-1.91-67.6c-1.59-14-11.17-52.46-11.17-52.46S152.53,268.26,156.24,250.52Z" style="fill: rgb(64, 123, 255); transform-origin: 182.548px 309.68px;" id="el7kse0yiuvn9" class="animable"></path><polygon points="189.72 386.77 206.68 385.73 205.57 391.68 190.63 392.3 189.72 386.77" style="fill: rgb(64, 123, 255); transform-origin: 198.2px 389.015px;" id="elahvf90pcs4g" class="animable"></polygon><g id="el76zm14yxi9p"><polygon points="189.72 386.77 206.68 385.73 205.57 391.68 190.63 392.3 189.72 386.77" style="fill: rgb(255, 255, 255); opacity: 0.5; transform-origin: 198.2px 389.015px;" class="animable"></polygon></g><path d="M203.26,398.87a.2.2,0,0,1-.15-.17.17.17,0,0,1,.1-.19c.13-.07,3.06-1.6,4.41-1.16a1,1,0,0,1,.6.47.75.75,0,0,1,0,.85,3.49,3.49,0,0,1-2.44.53A15,15,0,0,1,203.26,398.87Zm.64-.24c1.52.25,3.59.32,4-.2.06-.06.11-.18,0-.42a.52.52,0,0,0-.37-.29,1.19,1.19,0,0,0-.37-.06A8.9,8.9,0,0,0,203.9,398.63Z" style="fill: rgb(64, 123, 255); transform-origin: 205.729px 398.255px;" id="eluc1fsvbs43a" class="animable"></path><path d="M203.15,398.85a.23.23,0,0,1-.08-.18c0-.1.33-2.3,1.41-3.12a1.42,1.42,0,0,1,1.09-.29c.53.07.69.35.7.57.14.93-1.9,2.64-2.9,3a.08.08,0,0,1-.08,0A.18.18,0,0,1,203.15,398.85Zm2.28-3.23a1.07,1.07,0,0,0-.69.22,4.62,4.62,0,0,0-1.19,2.47c1-.56,2.4-1.9,2.37-2.46,0-.05,0-.19-.38-.23Z" style="fill: rgb(64, 123, 255); transform-origin: 204.673px 397.05px;" id="el76z2pvdd7bf" class="animable"></path><path d="M202.46,397.69l-9-.36a.73.73,0,0,0-.73.54l-1.91,7.23a1.2,1.2,0,0,0,.85,1.47,1,1,0,0,0,.25,0c3.23.07,6.11,0,10.14.17,4.74.19,3.52.71,9.1,1,3.36.18,4.12-3.62,2.71-3.86-6.5-1.08-7.1-3.08-9.52-5.51A2.91,2.91,0,0,0,202.46,397.69Z" style="fill: rgb(38, 50, 56); transform-origin: 202.661px 402.538px;" id="elsbet4z9yao" class="animable"></path><path d="M191.83,160.28c-.59,1.89-2.07,5.08,0,7.93l-10.21-1s1.09-7.53,1.72-10c.41-1.59.94-3.32,6.31-1.82C192.73,156.28,192.23,159,191.83,160.28Z" style="fill: rgb(250, 178, 123); transform-origin: 186.875px 161.513px;" id="elemb0ftemq6c" class="animable"></path><path d="M182.62,157.49c-5.62-4.34-17.5-16.1-6.1-26.37,9.49-8.55,18.21-3.55,21.18,2.23,3.33,6.47,10.88,23.76-5.87,26.93C188.75,160.86,185.54,159.74,182.62,157.49Z" style="fill: rgb(250, 178, 123); transform-origin: 187.028px 143.486px;" id="el9d6uv5l8te8" class="animable"></path><path d="M174.59,167.55s7.88-6.92,22.85,2.21l-.21,2.14-22.5-2.18Z" style="fill: rgb(64, 123, 255); transform-origin: 186.015px 168.469px;" id="elj6eh45qrnu" class="animable"></path><g id="el40buxrmdhwy"><path d="M174.59,167.55s7.88-6.92,22.85,2.21l-.21,2.14-22.5-2.18Z" style="fill: rgb(255, 255, 255); opacity: 0.5; transform-origin: 186.015px 168.469px;" class="animable"></path></g><g id="eli3zunmzxhr"><path d="M189.68,158.24c0,2.31.71,3.51,1.54,4.11a15.26,15.26,0,0,1,.61-2.07C189.82,159.4,189.68,158.24,189.68,158.24Z" style="opacity: 0.1; transform-origin: 190.755px 160.295px;" class="animable"></path></g><path d="M195.68,169.49a94.36,94.36,0,0,0-9.81-1.56c-5.8-.68-10.23-1.13-13.43.28-5.1,2.25-5.75,3.69-5.75,3.69l1,16.53a147.43,147.43,0,0,1,.43,24c0,.07-.4,15.75-8.87,24.17a27.67,27.67,0,0,0,12.14,5.67l4.78-11.44,1.51,12s17.21,5.1,31.41.39c0,0-7.77-12.42-5.27-25.12,1.21-6.11,2.09-9,2.77-13.8a26.07,26.07,0,0,0,0-7.81l-3.19-21.8S197.76,170,195.68,169.49Z" style="fill: rgb(64, 123, 255); transform-origin: 184.17px 206.251px;" id="el4yyyctmtv8t" class="animable"></path><g id="elwfega005rj"><path d="M195.68,169.49a94.36,94.36,0,0,0-9.81-1.56c-5.8-.68-10.23-1.13-13.43.28-5.1,2.25-5.75,3.69-5.75,3.69l1,16.53a147.43,147.43,0,0,1,.43,24c0,.07-.4,15.75-8.87,24.17a27.67,27.67,0,0,0,12.14,5.67l4.78-11.44,1.51,12s17.21,5.1,31.41.39c0,0-7.77-12.42-5.27-25.12,1.21-6.11,2.09-9,2.77-13.8a26.07,26.07,0,0,0,0-7.81l-3.19-21.8S197.76,170,195.68,169.49Z" style="opacity: 0.6; transform-origin: 184.17px 206.251px;" class="animable"></path></g><path d="M205.57,210.49c.41-2.21.77-4.29,1-6.14a26.07,26.07,0,0,0,0-7.81l-4.57-5.14S206.4,197.58,205.57,210.49Z" id="el1oyd21cjmrj" class="animable" style="transform-origin: 204.432px 200.945px;"></path><path d="M246.38,187l3.16-9a.74.74,0,0,1,.36-.42l4.95-2.53a.77.77,0,0,1,.83.11l3.53,3.1a.74.74,0,0,1,.1,1l-3.65,4.8a.77.77,0,0,0-.1.18c-.28.71-2.16,5.2-6.16,6.32l-.15.06-1.34.71a.74.74,0,0,1-1-.22l-1.71-2.39a.74.74,0,0,1,.3-1.11l.45-.21A.69.69,0,0,0,246.38,187Z" style="fill: rgb(250, 178, 123); transform-origin: 252.26px 183.207px;" id="eljby1k7t2twq" class="animable"></path><path d="M195.59,169.48a25.56,25.56,0,0,1,14.79,10.12,102.72,102.72,0,0,0,15,15.33s11.56-2.46,18.85-8.77l4.28,6.39s-17.56,13.24-24.71,12.55c-6.1-.59-17.22-8.53-17.22-8.53L202,191.43Z" style="fill: rgb(64, 123, 255); transform-origin: 222.05px 187.303px;" id="elow3jajz2ofg" class="animable"></path><g id="elw07tlm8xzhg"><path d="M195.59,169.48a25.56,25.56,0,0,1,14.79,10.12,102.72,102.72,0,0,0,15,15.33s11.56-2.46,18.85-8.77l4.28,6.39s-17.56,13.24-24.71,12.55c-6.1-.59-17.22-8.53-17.22-8.53L202,191.43Z" style="opacity: 0.6; transform-origin: 222.05px 187.303px;" class="animable"></path></g><polygon points="244.63 185.36 251.05 193.33 246.75 194.47 241.63 186.98 244.63 185.36" style="fill: rgb(64, 123, 255); transform-origin: 246.34px 189.915px;" id="elhtwnbtaf9zv" class="animable"></polygon><g id="eluq5wrmxi1yb"><polygon points="244.63 185.36 251.05 193.33 246.75 194.47 241.63 186.98 244.63 185.36" style="fill: rgb(255, 255, 255); opacity: 0.5; transform-origin: 246.34px 189.915px;" class="animable"></polygon></g><polygon points="201.87 147.17 201.87 150.27 203.96 149.98 201.87 147.17" style="fill: rgb(224, 127, 80); transform-origin: 202.915px 148.72px;" id="elpgmx3588jch" class="animable"></polygon><path d="M185.48,165.73c-4.81.49-19,.77-17.31-9.64s-.61-15.57,3.8-22.9,13.6-9.47,21.87-7.3c6.89,1.8,7.45,6.62,5.58,9.52s-2.71,3.44-2.38,5.5-.92,3.21-1.46,4.18a5.71,5.71,0,0,1-2.2,1.59,12.66,12.66,0,0,0,.37,6.07C194.75,156.56,196.79,164.56,185.48,165.73Z" id="el3fw2l6pba79" class="animable" style="transform-origin: 184.187px 145.5px;"></path><path d="M191.88,126a19.71,19.71,0,0,1,6.65,1.91c1.63.84,3.26,2.09,3.63,4,.53,2.75-1.6,5.36-3.29,7.26-.27.31.25.67.51.37,3-3.36,5.32-8.08.92-11.3a17.75,17.75,0,0,0-8.36-2.86.31.31,0,0,0-.06.62Z" id="elquq2i4hyutn" class="animable" style="transform-origin: 197.17px 132.516px;"></path><path d="M172,133.13c-3.17,4.11-3.32,9.48-4,14.38-.45,3.46-4.35,10.21-1.59,13.47.26.31.76-.08.5-.39-1.89-2.23,0-5.51.64-7.82a41.57,41.57,0,0,0,1.23-6.93c.43-4.19,1-8.87,3.69-12.33.25-.32-.26-.7-.51-.38Z" id="elujj4ikk5z4q" class="animable" style="transform-origin: 168.984px 147.051px;"></path><path d="M199.72,141.27c-.06.13.05-.1.07-.13a1.5,1.5,0,0,1,.23-.33,1.08,1.08,0,0,1,1.16-.34c.38.09.54-.49.16-.58a1.85,1.85,0,0,0-2.2,1.22c-.15.35.43.51.58.16Z" id="el76o66930ejw" class="animable" style="transform-origin: 200.336px 140.651px;"></path><path d="M197.26,145.83c.64,1.92,0,3.86-1.37,4.33s-3-.71-3.7-2.64,0-3.86,1.37-4.33S196.61,143.9,197.26,145.83Z" style="fill: rgb(250, 178, 123); transform-origin: 194.712px 146.675px;" id="elgjxl0lo9exd" class="animable"></path><path d="M202,141c-.09.72-.79.87-1.15.93s-.39.47-.32,1,.32.91.56.87.39-.47.33-1a2.1,2.1,0,0,0-.12-.42C202.43,141.7,202,141,202,141Z" id="elgzo1529uw8o" class="animable" style="transform-origin: 201.29px 142.401px;"></path></g><defs>     <filter id="active" height="200%">         <feMorphology in="SourceAlpha" result="DILATED" operator="dilate" radius="2"></feMorphology>                <feFlood flood-color="#32DFEC" flood-opacity="1" result="PINK"></feFlood>        <feComposite in="PINK" in2="DILATED" operator="in" result="OUTLINE"></feComposite>        <feMerge>            <feMergeNode in="OUTLINE"></feMergeNode>            <feMergeNode in="SourceGraphic"></feMergeNode>        </feMerge>    </filter>    <filter id="hover" height="200%">        <feMorphology in="SourceAlpha" result="DILATED" operator="dilate" radius="2"></feMorphology>                <feFlood flood-color="#ff0000" flood-opacity="0.5" result="PINK"></feFlood>        <feComposite in="PINK" in2="DILATED" operator="in" result="OUTLINE"></feComposite>        <feMerge>            <feMergeNode in="OUTLINE"></feMergeNode>            <feMergeNode in="SourceGraphic"></feMergeNode>        </feMerge>            <feColorMatrix type="matrix" values="0   0   0   0   0                0   1   0   0   0                0   0   0   0   0                0   0   0   1   0 "></feColorMatrix>    </filter></defs></svg>